<svg width="32" height="32" viewBox="0 0 32 32" fill="none" xmlns="http://www.w3.org/2000/svg">
  <rect width="32" height="32" rx="6" fill="#0071C7"/>
  <path d="M8 8H24V16C24 20.4183 20.4183 24 16 24C11.5817 24 8 20.4183 8 16V8Z" fill="white"/>
  <path d="M16 14C17.1046 14 18 13.1046 18 12C18 10.8954 17.1046 10 16 10C14.8954 10 14 10.8954 14 12C14 13.1046 14.8954 14 16 14Z" fill="#0071C7"/>
  <path d="M12 18C12 15.7909 13.7909 14 16 14C18.2091 14 20 15.7909 20 18V20H12V18Z" fill="#0071C7"/>
</svg>