<svg width="200" height="50" viewBox="0 0 200 50" fill="none" xmlns="http://www.w3.org/2000/svg">
  <path d="M10 10H40V25C40 33.2843 33.2843 40 25 40C16.7157 40 10 33.2843 10 25V10Z" fill="#0071C7"/>
  <path d="M25 22C26.6569 22 28 20.6569 28 19C28 17.3431 26.6569 16 25 16C23.3431 16 22 17.3431 22 19C22 20.6569 23.3431 22 25 22Z" fill="white"/>
  <path d="M20 27C20 24.7909 22.2386 23 25 23C27.7614 23 30 24.7909 30 27V30H20V27Z" fill="white"/>
  <path d="M50 22H52.464C53.2027 22 53.824 22.1493 54.328 22.448C54.8347 22.744 55.2107 23.1627 55.456 23.704C55.7013 24.2427 55.824 24.872 55.824 25.592C55.824 26.3093 55.7013 26.9387 55.456 27.48C55.2107 28.0187 54.8347 28.4373 54.328 28.736C53.824 29.0347 53.2027 29.184 52.464 29.184H50V22ZM52.384 27.976C53.1733 27.976 53.7867 27.7547 54.224 27.312C54.664 26.8693 54.884 26.296 54.884 25.592C54.884 24.888 54.664 24.3147 54.224 23.872C53.7867 23.4267 53.1733 23.204 52.384 23.204H50.9V27.976H52.384Z" fill="#0071C7"/>
  <path d="M61.651 29.304C61.0257 29.304 60.457 29.1813 59.9477 28.936C59.4383 28.688 59.035 28.3387 58.7383 27.888C58.4443 27.4347 58.2977 26.9067 58.2977 26.304C58.2977 25.704 58.4443 25.1787 58.7383 24.728C59.035 24.2747 59.4383 23.9253 59.9477 23.68C60.457 23.432 61.0257 23.308 61.651 23.308C62.2657 23.308 62.811 23.4293 63.3277 23.672C63.8443 23.912 64.2423 24.2587 64.5217 24.712C64.801 25.1653 64.9423 25.6933 64.9477 26.296C64.9423 26.9013 64.7983 27.432 64.5157 27.888C64.233 28.3413 63.8323 28.6907 63.3137 28.936C62.7977 29.1813 62.2577 29.304 61.651 29.304ZM61.651 28.36C62.0277 28.36 62.3683 28.2827 62.6717 28.128C62.9777 27.9707 63.219 27.7413 63.395 27.44C63.571 27.1387 63.659 26.7667 63.659 26.324C63.659 25.876 63.571 25.5013 63.395 25.2C63.219 24.8987 62.9803 24.6693 62.6797 24.512C62.3817 24.3547 62.0457 24.276 61.6717 24.276C61.2977 24.276 60.959 24.3547 60.655 24.512C60.351 24.6693 60.109 24.8987 59.9317 25.2C59.7543 25.5013 59.665 25.876 59.665 26.324C59.665 26.7693 59.7517 27.144 59.925 27.448C60.101 27.7493 60.3403 27.976 60.6437 28.128C60.947 28.2827 61.2817 28.36 61.651 28.36Z" fill="#0071C7"/>
  <path d="M82.7978 29.184H81.6378L78.3738 24.992V29.184H77.4738V22.008H78.6338L81.8978 26.2V22.008H82.7978V29.184Z" fill="#0071C7"/>
  <path d="M89.3805 23.376H87.2445V22.488H92.4005V23.376H90.2645V29.184H89.3805V23.376Z" fill="#0071C7"/>
  <path d="M97.4967 22.488H98.3807V27.72C98.3807 28.232 98.4967 28.624 98.7287 28.896C98.9634 29.168 99.3047 29.304 99.7527 29.304C100.201 29.304 100.539 29.168 100.769 28.896C101.001 28.624 101.117 28.232 101.117 27.72V22.488H102.001V27.704C102.001 28.152 101.913 28.5347 101.737 28.856C101.561 29.1747 101.307 29.4187 100.977 29.588C100.649 29.7573 100.245 29.842 99.7607 29.842C99.2794 29.842 98.8714 29.7573 98.5367 29.588C98.2047 29.4187 97.9514 29.1747 97.7767 28.856C97.6047 28.5347 97.5194 28.152 97.5207 27.704L97.4967 22.488Z" fill="#0071C7"/>
  <path d="M108.524 22.488H109.408V27.72C109.408 28.232 109.524 28.624 109.756 28.896C109.991 29.168 110.332 29.304 110.78 29.304C111.228 29.304 111.567 29.168 111.797 28.896C112.029 28.624 112.145 28.232 112.145 27.72V22.488H113.029V27.704C113.029 28.152 112.941 28.5347 112.765 28.856C112.589 29.1747 112.335 29.4187 112.005 29.588C111.677 29.7573 111.273 29.842 110.788 29.842C110.307 29.842 109.899 29.7573 109.564 29.588C109.232 29.4187 108.979 29.1747 108.804 28.856C108.632 28.5347 108.547 28.152 108.548 27.704L108.524 22.488Z" fill="#0071C7"/>
  <path d="M119.651 29.304C119.026 29.304 118.457 29.1813 117.948 28.936C117.438 28.688 117.035 28.3387 116.738 27.888C116.444 27.4347 116.298 26.9067 116.298 26.304C116.298 25.704 116.444 25.1787 116.738 24.728C117.035 24.2747 117.438 23.9253 117.948 23.68C118.457 23.432 119.026 23.308 119.651 23.308C120.266 23.308 120.811 23.4293 121.328 23.672C121.844 23.912 122.242 24.2587 122.522 24.712C122.801 25.1653 122.942 25.6933 122.948 26.296C122.942 26.9013 122.798 27.432 122.516 27.888C122.233 28.3413 121.832 28.6907 121.314 28.936C120.798 29.1813 120.258 29.304 119.651 29.304ZM119.651 28.36C120.028 28.36 120.368 28.2827 120.672 28.128C120.978 27.9707 121.219 27.7413 121.395 27.44C121.571 27.1387 121.659 26.7667 121.659 26.324C121.659 25.876 121.571 25.5013 121.395 25.2C121.219 24.8987 120.98 24.6693 120.68 24.512C120.382 24.3547 120.046 24.276 119.672 24.276C119.298 24.276 118.959 24.3547 118.655 24.512C118.351 24.6693 118.109 24.8987 117.932 25.2C117.754 25.5013 117.665 25.876 117.665 26.324C117.665 26.7693 117.752 27.144 117.925 27.448C118.101 27.7493 118.34 27.976 118.644 28.128C118.947 28.2827 119.282 28.36 119.651 28.36Z" fill="#0071C7"/>
  <path d="M128.478 22.488H129.37V26.344C129.37 27.1253 129.575 27.7307 129.986 28.16C130.399 28.5893 130.946 28.804 131.626 28.804C132.305 28.804 132.849 28.5893 133.258 28.16C133.669 27.7307 133.874 27.1253 133.874 26.344V22.488H134.766V26.344C134.766 27.3947 134.486 28.208 133.926 28.784C133.369 29.36 132.603 29.648 131.626 29.648C130.649 29.648 129.879 29.36 129.314 28.784C128.757 28.208 128.478 27.3973 128.478 26.352V22.488Z" fill="#0071C7"/>
  <path d="M143.08 29.184H142.196V26.832H139.328V29.184H138.444V22.488H139.328V25.952H142.196V22.488H143.08V29.184Z" fill="#0071C7"/>
  <path d="M148.887 29.184H148.003V22.488H148.887V25.416H152.079V22.488H152.963V29.184H152.079V26.296H148.887V29.184Z" fill="#0071C7"/>
  <path d="M159.206 22.488H160.09V27.72C160.09 28.232 160.206 28.624 160.438 28.896C160.673 29.168 161.014 29.304 161.462 29.304C161.91 29.304 162.249 29.168 162.479 28.896C162.711 28.624 162.827 28.232 162.827 27.72V22.488H163.711V27.704C163.711 28.152 163.623 28.5347 163.447 28.856C163.271 29.1747 163.017 29.4187 162.687 29.588C162.359 29.7573 161.955 29.842 161.471 29.842C160.989 29.842 160.581 29.7573 160.246 29.588C159.914 29.4187 159.661 29.1747 159.486 28.856C159.314 28.5347 159.229 28.152 159.23 27.704L159.206 22.488Z" fill="#0071C7"/>
  <path d="M169.851 22.488H175.015V23.376H170.735V25.424H174.691V26.312H170.735V28.296H175.175V29.184H169.851V22.488Z" fill="#0071C7"/>
  <path d="M180.48 22.488H185.644V23.376H181.364V25.424H185.32V26.312H181.364V28.296H185.804V29.184H180.48V22.488Z" fill="#0071C7"/>
  <path d="M189.638 25.352C189.638 24.4333 189.93 23.7093 190.514 23.176C191.098 22.64 191.894 22.372 192.902 22.372C193.918 22.372 194.741 22.64 195.37 23.176C196.002 23.712 196.318 24.4307 196.318 25.32C196.318 26.2093 196.002 26.928 195.37 27.476C194.738 28.0213 193.886 28.294 192.814 28.294H192.278L196.302 33.5H194.942L190.97 28.28C190.082 28.1333 189.407 27.7653 188.942 27.176C188.486 26.584 188.258 25.928 188.258 25.208C188.258 24.488 188.45 23.832 188.834 23.24C189.218 22.648 189.73 22.224 190.37 21.968C191.01 21.712 191.714 21.584 192.482 21.584C193.322 21.584 194.052 21.7253 194.674 22.008C195.298 22.288 195.782 22.7067 196.126 23.264C196.472 23.8213 196.646 24.48 196.646 25.24C196.646 25.7227 196.57 26.1707 196.418 26.584C196.266 26.9947 196.052 27.3573 195.778 27.672L195.338 27.232C195.562 26.9627 195.73 26.6533 195.842 26.304C195.954 25.952 196.01 25.584 196.01 25.2C196.01 24.4933 195.842 23.9107 195.506 23.456C195.17 22.9987 194.715 22.6667 194.138 22.46C193.562 22.2533 192.93 22.15 192.242 22.15C191.402 22.15 190.698 22.3307 190.13 22.692C189.562 23.0533 189.278 23.5747 189.278 24.256C189.278 24.896 189.526 25.3893 190.022 25.736C190.526 26.08 191.17 26.252 191.954 26.252H192.514C193.266 26.252 193.866 26.0773 194.314 25.728C194.77 25.376 194.998 24.912 194.998 24.336C194.998 23.8 194.822 23.376 194.47 23.064C194.122 22.752 193.682 22.5947 193.15 22.592C192.646 22.592 192.242 22.736 191.938 23.024C191.642 23.312 191.494 23.6853 191.494 24.144H190.874C190.874 23.52 191.074 23.0347 191.474 22.688C191.874 22.3387 192.43 22.164 193.142 22.164C193.854 22.164 194.426 22.352 194.858 22.728C195.29 23.1013 195.506 23.6107 195.506 24.256C195.506 24.916 195.25 25.4627 194.738 25.896C194.234 26.3267 193.55 26.542 192.686 26.542H192.126C191.254 26.542 190.546 26.344 190.002 25.948C189.459 25.552 189.19 24.984 189.19 24.244C189.19 23.5027 189.474 22.9173 190.042 22.488C190.61 22.0587 191.35 21.844 192.262 21.844C193.046 21.844 193.754 21.9773 194.386 22.244C195.026 22.5107 195.53 22.8987 195.898 23.408C196.266 23.9147 196.45 24.5107 196.45 25.196C196.45 25.6467 196.382 26.0667 196.246 26.456C196.11 26.8453 195.91 27.1973 195.646 27.512L195.258 27.112C195.474 26.8533 195.634 26.5627 195.738 26.24C195.85 25.9147 195.906 25.5707 195.906 25.208C195.906 24.5627 195.75 24.0173 195.438 23.576C195.126 23.132 194.706 22.8027 194.178 22.588C193.65 22.3707 193.07 22.262 192.438 22.262C191.702 22.262 191.062 22.4133 190.518 22.716C189.982 23.0187 189.714 23.448 189.714 24.004C189.714 24.5467 189.93 24.9533 190.362 25.224C190.802 25.4947 191.346 25.63 191.994 25.63H192.562C193.242 25.63 193.77 25.4747 194.146 25.164C194.53 24.8533 194.722 24.4547 194.722 23.968C194.722 23.5173 194.578 23.16 194.29 22.896C194.01 22.632 193.65 22.5 193.21 22.5C192.778 22.5 192.43 22.624 192.166 22.872C191.902 23.12 191.77 23.4533 191.77 23.872H191.29C191.29 23.3307 191.466 22.8987 191.818 22.576C192.17 22.2533 192.626 22.092 193.186 22.092C193.754 22.092 194.23 22.252 194.614 22.572C194.998 22.8893 195.19 23.32 195.19 23.864C195.19 24.424 194.974 24.8827 194.542 25.24C194.11 25.5947 193.534 25.772 192.814 25.772H192.062C191.342 25.772 190.75 25.6307 190.286 25.348C189.822 25.0653 189.59 24.6627 189.59 24.144C189.59 23.6307 189.826 23.216 190.298 22.9C190.778 22.584 191.35 22.4267 192.014 22.428C192.742 22.428 193.362 22.58 193.874 22.884C194.394 23.188 194.654 23.6347 194.654 24.224C194.654 24.7947 194.446 25.2533 194.03 25.6C193.622 25.944 193.082 26.1173 192.41 26.12H191.866C191.21 26.12 190.678 25.9493 190.27 25.608C189.862 25.264 189.658 24.8107 189.658 24.248C189.658 23.6827 189.894 23.2347 190.366 22.904C190.838 22.5733 191.45 22.4067 192.202 22.404C192.906 22.404 193.502 22.5733 193.99 22.912C194.478 23.248 194.722 23.7067 194.722 24.288C194.722 24.832 194.534 25.2707 194.158 25.604C193.782 25.9347 193.29 26.1 192.682 26.1H192.13C191.466 26.1 190.926 25.94 190.51 25.62C190.094 25.3 189.886 24.8613 189.886 24.304C189.886 23.7467 190.086 23.3147 190.486 23.008C190.886 22.6987 191.37 22.544 191.938 22.544C192.562 22.544 193.062 22.7 193.438 23.012C193.822 23.324 194.014 23.724 194.014 24.212C194.014 24.6947 193.83 25.0773 193.462 25.36C193.094 25.64 192.622 25.78 192.046 25.78H191.498C190.95 25.78 190.51 25.632 190.178 25.336C189.854 25.04 189.686 24.6467 189.674 24.156C189.67 23.6627 189.854 23.272 190.226 22.984C190.598 22.6933 191.082 22.548 191.678 22.548C192.286 22.5507 192.774 22.708 193.142 23.016C193.51 23.324 193.694 23.7373 193.694 24.256C193.694 24.752 193.516 25.156 193.158 25.468C192.8 25.78 192.358 25.936 191.83 25.936H191.266C190.81 25.936 190.418 25.808 190.09 25.552C189.77 25.2933 189.61 24.944 189.61 24.504C189.61 24.056 189.754 23.712 190.042 23.472C190.338 23.232 190.726 23.112 191.206 23.112C191.69 23.112 192.066 23.228 192.334 23.46C192.61 23.692 192.75 24.008 192.754 24.408C192.754 24.8 192.61 25.108 192.322 25.332C192.042 25.556 191.702 25.668 191.302 25.668H190.762C190.482 25.668 190.238 25.5933 190.03 25.444C189.83 25.292 189.73 25.092 189.73 24.844C189.73 24.6093 189.806 24.416 189.958 24.264C190.118 24.112 190.338 24.036 190.618 24.036C190.89 24.036 191.09 24.1 191.218 24.228C191.354 24.3533 191.422 24.5093 191.422 24.696C191.422 24.872 191.366 25.0147 191.254 25.124C191.142 25.2307 191.002 25.284 190.834 25.284C190.674 25.284 190.546 25.2307 190.45 25.124C190.362 25.0173 190.318 24.8747 190.318 24.696H190.618C190.618 24.8 190.638 24.8747 190.678 24.92C190.718 24.9627 190.766 24.984 190.822 24.984C190.902 24.984 190.966 24.9613 191.014 24.916C191.062 24.8707 191.086 24.8 191.086 24.704C191.086 24.5947 191.058 24.5093 191.002 24.448C190.954 24.3867 190.87 24.356 190.75 24.356C190.598 24.356 190.474 24.4 190.378 24.488C190.282 24.5733 190.234 24.6947 190.234 24.852C190.234 25.0627 190.314 25.228 190.474 25.348C190.634 25.4653 190.834 25.524 191.074 25.524H191.414C191.714 25.524 191.962 25.44 192.158 25.272C192.354 25.104 192.45 24.896 192.446 24.648C192.442 24.4 192.33 24.196 192.11 24.036C191.898 23.8733 191.63 23.792 191.306 23.792C190.938 23.792 190.646 23.8867 190.43 24.076C190.214 24.2653 190.106 24.528 190.106 24.864C190.106 25.224 190.242 25.5147 190.514 25.732C190.786 25.9493 191.118 26.0573 191.51 26.056H192.01C192.446 26.056 192.802 25.9467 193.078 25.728C193.362 25.5067 193.502 25.204 193.498 24.82C193.498 24.4413 193.35 24.1347 193.054 23.9C192.758 23.6627 192.39 23.544 191.95 23.544C191.47 23.544 191.102 23.644 190.846 23.844C190.59 24.044 190.462 24.32 190.462 24.672C190.462 25.0427 190.59 25.34 190.846 25.564C191.102 25.788 191.418 25.9 191.794 25.9H192.322C192.706 25.9 193.022 25.8013 193.27 25.604C193.518 25.4067 193.646 25.1333 193.65 24.784C193.65 24.432 193.526 24.156 193.278 23.956C193.038 23.756 192.738 23.656 192.378 23.656C192.006 23.656 191.706 23.7387 191.478 23.904C191.25 24.0693 191.138 24.3 191.142 24.596C191.142 24.88 191.25 25.104 191.466 25.268C191.69 25.4293 191.95 25.508 192.246 25.504H192.566C192.846 25.5 193.066 25.432 193.226 25.3C193.386 25.168 193.466 24.9933 193.466 24.784C193.466 24.56 193.386 24.3773 193.226 24.236C193.066 24.0947 192.87 24.024 192.638 24.024C192.418 24.024 192.238 24.0787 192.098 24.188C191.958 24.2973 191.886 24.448 191.882 24.64C191.886 24.8213 191.95 24.964 192.074 25.068C192.198 25.172 192.35 25.224 192.53 25.224H192.77C192.93 25.224 193.05 25.184 193.13 25.104C193.218 25.024 193.262 24.916 193.262 24.78C193.262 24.644 193.218 24.536 193.13 24.456C193.05 24.376 192.95 24.336 192.83 24.336C192.71 24.336 192.61 24.368 192.53 24.432C192.45 24.496 192.41 24.5787 192.41 24.68H192.062C192.062 24.4613 192.142 24.2787 192.302 24.132C192.462 23.9853 192.662 23.912 192.902 23.912C193.142 23.912 193.33 23.9853 193.466 24.132C193.602 24.2787 193.67 24.4613 193.67 24.68C193.67 24.92 193.586 25.1267 193.418 25.3C193.258 25.4733 193.046 25.56 192.782 25.56H192.538C192.25 25.56 192.006 25.48 191.806 25.32C191.614 25.16 191.518 24.952 191.518 24.696C191.518 24.4533 191.602 24.252 191.77 24.092C191.938 23.9293 192.146 23.848 192.394 23.848C192.658 23.848 192.87 23.932 193.03 24.1C193.198 24.268 193.282 24.48 193.282 24.736C193.282 24.992 193.198 25.2027 193.03 25.368C192.87 25.5333 192.662 25.616 192.406 25.616H192.082C191.826 25.616 191.618 25.5453 191.458 25.404C191.298 25.26 191.218 25.0813 191.218 24.868C191.218 24.6733 191.282 24.516 191.41 24.396C191.538 24.276 191.69 24.216 191.866 24.216C192.05 24.216 192.19 24.26 192.286 24.348C192.39 24.4333 192.442 24.5533 192.442 24.708C192.442 24.8573 192.398 24.9747 192.31 25.06C192.222 25.1453 192.11 25.188 191.974 25.188H191.674C191.674 25.3227 191.726 25.4293 191.83 25.508C191.942 25.5867 192.074 25.6267 192.226 25.628H192.462C192.654 25.628 192.81 25.572 192.93 25.46C193.05 25.3453 193.11 25.1933 193.11 25.004C193.11 24.8093 193.05 24.6467 192.93 24.516C192.81 24.384 192.654 24.3173 192.462 24.316C192.27 24.316 192.11 24.372 191.982 24.484C191.862 24.5933 191.802 24.736 191.802 24.912C191.802 25.0907 191.862 25.24 191.982 25.36C192.102 25.48 192.254 25.54 192.438 25.54H192.774C192.966 25.54 193.126 25.484 193.254 25.372C193.382 25.2573 193.446 25.112 193.446 24.936C193.446 24.76 193.382 24.6093 193.254 24.484C193.134 24.3587 192.978 24.296 192.786 24.296C192.586 24.296 192.422 24.3573 192.294 24.48C192.174 24.6 192.114 24.752 192.114 24.936C192.114 25.2187 192.21 25.452 192.402 25.636C192.594 25.82 192.85 25.912 193.17 25.912H193.506C193.842 25.912 194.118 25.8187 194.334 25.632C194.558 25.4427 194.67 25.1987 194.67 24.9C194.67 24.6013 194.558 24.3573 194.334 24.168C194.11 23.976 193.83 23.88 193.494 23.88C193.134 23.88 192.834 23.9787 192.594 24.176C192.362 24.3733 192.246 24.6307 192.246 24.948C192.246 25.2573 192.362 25.508 192.594 25.7C192.826 25.892 193.11 25.988 193.446 25.988H193.93C194.29 25.988 194.578 25.8867 194.794 25.684C195.018 25.4787 195.13 25.22 195.13 24.908C195.13 24.588 195.018 24.3253 194.794 24.12C194.578 23.9147 194.294 23.812 193.942 23.812C193.566 23.812 193.262 23.914 193.03 24.118C192.798 24.322 192.682 24.5853 192.682 24.908C192.682 25.2413 192.798 25.5093 193.03 25.712C193.27 25.9147 193.566 26.016 193.918 26.016H194.366C194.71 26.016 194.99 25.9187 195.206 25.724C195.43 25.5267 195.542 25.2707 195.542 24.956C195.542 24.628 195.43 24.3613 195.206 24.156C194.99 23.948 194.714 23.844 194.378 23.844C194.01 23.844 193.714 23.9467 193.49 24.152C193.266 24.3547 193.154 24.6227 193.154 24.956C193.154 25.2853 193.266 25.548 193.49 25.744C193.714 25.9373 193.994 26.0333 194.33 26.032H194.794C195.09 26.032 195.334 25.944 195.526 25.768C195.726 25.592 195.826 25.3733 195.826 25.112C195.826 24.8453 195.73 24.6307 195.538 24.468C195.346 24.3027 195.106 24.22 194.818 24.22C194.538 24.22 194.302 24.308 194.11 24.484C193.918 24.6573 193.822 24.8747 193.822 25.136C193.822 25.376 193.906 25.5787 194.074 25.744C194.242 25.9093 194.454 25.992 194.71 25.992H195.042C195.254 25.992 195.43 25.9187 195.57 25.772C195.71 25.624 195.782 25.444 195.786 25.232C195.782 25.0267 195.71 24.8587 195.57 24.728C195.43 24.5947 195.258 24.5293 195.054 24.532C194.85 24.532 194.682 24.5973 194.55 24.728C194.418 24.8587 194.35 25.0227 194.346 25.22H194.03C194.03 24.94 194.13 24.716 194.33 24.548C194.53 24.38 194.77 24.296 195.05 24.296C195.33 24.296 195.566 24.3827 195.758 24.556C195.95 24.7267 196.046 24.9507 196.046 25.228C196.046 25.5053 195.95 25.732 195.758 25.908C195.574 26.084 195.334 26.172 195.038 26.172H194.702C194.374 26.172 194.106 26.0733 193.898 25.876C193.69 25.6787 193.586 25.4347 193.586 25.144C193.586 24.8507 193.69 24.6093 193.898 24.42C194.106 24.228 194.366 24.132 194.678 24.132C195.006 24.132 195.266 24.228 195.458 24.42C195.65 24.6093 195.746 24.8627 195.746 25.18C195.746 25.4973 195.65 25.756 195.458 25.956C195.266 26.1533 195.014 26.252 194.702 26.252H194.238C193.838 26.252 193.502 26.132 193.23 25.892C192.958 25.652 192.822 25.3387 192.822 24.952C192.822 24.5733 192.958 24.2613 193.23 24.016C193.502 23.768 193.834 23.644 194.226 23.644C194.642 23.644 194.986 23.7667 195.258 24.012C195.53 24.2547 195.666 24.5613 195.666 24.932C195.666 25.316 195.53 25.6347 195.258 25.888C194.986 26.1387 194.642 26.264 194.226 26.264H193.87C193.35 26.264 192.922 26.1373 192.586 25.884C192.25 25.628 192.082 25.2867 192.082 24.86C192.082 24.444 192.25 24.1027 192.586 23.836C192.93 23.5693 193.35 23.436 193.846 23.436C194.358 23.436 194.782 23.5693 195.118 23.836C195.454 24.1 195.622 24.4467 195.622 24.876C195.622 25.316 195.454 25.668 195.118 25.932C194.782 26.1933 194.354 26.324 193.834 26.324H193.286C192.734 26.324 192.274 26.1773 191.906 25.884C191.538 25.588 191.354 25.1973 191.354 24.712C191.354 24.2347 191.538 23.8467 191.906 23.548C192.274 23.2493 192.734 23.1 193.286 23.1H193.81C194.402 23.1 194.878 23.2547 195.238 23.564C195.606 23.8707 195.79 24.2693 195.79 24.76C195.79 25.2427 195.602 25.6347 195.226 25.936C194.85 26.2347 194.37 26.384 193.786 26.384H193.15C192.51 26.384 191.99 26.2133 191.59 25.872C191.198 25.528 191.002 25.0827 191.002 24.536C191.002 23.9893 191.198 23.5413 191.59 23.192C191.982 22.84 192.494 22.664 193.126 22.664C193.774 22.664 194.298 22.8373 194.698 23.184C195.098 23.528 195.298 24.0013 195.298 24.604C195.298 25.1907 195.098 25.6573 194.698 26.004C194.298 26.348 193.774 26.52 193.126 26.52H192.538C191.83 26.52 191.274 26.3373 190.87 25.972C190.466 25.6067 190.264 25.12 190.264 24.512C190.264 23.904 190.474 23.4147 190.894 23.044C191.314 22.6733 191.858 22.488 192.526 22.488C193.21 22.488 193.766 22.6733 194.194 23.044C194.622 23.4147 194.836 23.9 194.836 24.5C194.836 25.1 194.626 25.5893 194.206 25.968C193.786 26.344 193.23 26.532 192.538 26.532H191.938C191.21 26.532 190.622 26.3453 190.174 25.972C189.726 25.5987 189.502 25.096 189.502 24.464C189.502 23.832 189.722 23.3267 190.162 22.948C190.602 22.5693 191.17 22.38 191.866 22.38C192.614 22.38 193.214 22.5693 193.666 22.948C194.126 23.3267 194.356 23.832 194.356 24.464C194.356 25.096 194.126 25.5987 193.666 25.972C193.214 26.3453 192.618 26.532 191.878 26.532H191.298C190.594 26.532 190.026 26.3373 189.594 25.948C189.17 25.556 188.958 25.0467 188.958 24.42C188.958 23.788 189.182 23.2773 189.63 22.888C190.078 22.496 190.646 22.3 191.334 22.3C191.998 22.3 192.55 22.4947 192.99 22.884C193.43 23.2707 193.65 23.784 193.65 24.424C193.65 25.064 193.43 25.5773 192.99 25.964C192.55 26.3507 191.998 26.544 191.334 26.544H190.742C190.078 26.544 189.526 26.3533 189.086 25.972C188.646 25.5907 188.426 25.084 188.426 24.452C188.426 23.8173 188.646 23.308 189.086 22.924C189.526 22.5373 190.078 22.344 190.742 22.344H191.334C191.982 22.344 192.518 22.5347 192.942 22.916C193.366 23.2973 193.582 23.8067 193.59 24.444C193.59 25.0467 193.374 25.5533 192.942 25.964C192.518 26.3747 191.978 26.5787 191.322 26.576H190.702C190.062 26.568 189.53 26.3747 189.106 25.996C188.69 25.6147 188.482 25.108 188.482 24.476C188.482 23.8413 188.69 23.3347 189.106 22.956C189.53 22.5773 190.062 22.388 190.702 22.388H191.322C191.962 22.388 192.486 22.5773 192.894 22.956C193.31 23.332 193.518 23.8333 193.518 24.46C193.518 25.092 193.31 25.596 192.894 25.972C192.486 26.348 191.962 26.536 191.322 26.536H190.722C190.082 26.536 189.558 26.348 189.15 25.972C188.742 25.596 188.538 25.092 188.538 24.46C188.538 23.8333 188.742 23.332 189.15 22.956C189.558 22.5773 190.078 22.388 190.71 22.388H191.238C191.87 22.388 192.386 22.5773 192.786 22.956C193.194 23.332 193.398 23.8333 193.398 24.46C193.398 25.092 193.194 25.596 192.786 25.972C192.386 26.348 191.87 26.536 191.238 26.536H190.71C190.078 26.536 189.558 26.348 189.15 25.972C188.742 25.596 188.538 25.092 188.538 24.46C188.538 23.8333 188.742 23.332 189.15 22.956C189.558 22.5773 190.078 22.388 190.71 22.388H191.238C191.87 22.388 192.386 22.5773 192.786 22.956C193.194 23.332 193.398 23.8333 193.398 24.46C193.398 25.092 193.194 25.596 192.786 25.972C192.386 26.348 191.87 26.536 191.238 26.536</path>
</svg>